<?xml version="1.0" standalone="no"?>
<!DOCTYPE svg PUBLIC "-//W3C//DTD SVG 20010904//EN"
 "http://www.w3.org/TR/2001/REC-SVG-20010904/DTD/svg10.dtd">
<svg version="1.0" xmlns="http://www.w3.org/2000/svg"
 width="300.000000pt" height="300.000000pt" viewBox="0 0 300.000000 300.000000"
 preserveAspectRatio="xMidYMid meet">
<metadata>
Created by potrace 1.11, written by Peter Selinger 2001-2013
</metadata>
<g transform="translate(0.000000,300.000000) scale(0.100000,-0.100000)"
fill="#000000" stroke="none">
<path d="M810 2728 c-28 -19 -56 -66 -149 -251 l-114 -227 -86 0 -86 0 0 -125
0 -125 73 0 c68 0 72 -1 73 -22 2 -33 5 -55 17 -133 6 -38 13 -89 16 -112 3
-22 8 -52 10 -65 3 -12 8 -41 10 -63 3 -22 9 -71 15 -110 6 -38 13 -90 16
-115 3 -25 9 -70 14 -100 5 -30 12 -79 16 -109 3 -29 7 -56 9 -60 2 -3 7 -35
10 -70 4 -35 8 -67 10 -70 2 -3 7 -33 10 -66 10 -90 14 -117 21 -155 4 -19 9
-48 11 -65 2 -16 6 -52 10 -80 4 -27 8 -59 10 -70 27 -211 38 -241 94 -270 42
-22 1316 -23 1358 -1 58 30 73 71 97 276 3 25 7 56 10 70 6 41 27 181 31 212
4 37 13 98 24 173 5 33 12 80 15 105 3 25 8 56 10 70 2 14 7 45 10 70 3 25 7
56 10 70 2 14 7 45 10 70 4 25 8 56 10 70 2 14 9 61 15 105 6 44 13 91 15 105
15 102 19 127 20 140 1 8 8 56 15 107 l13 92 71 3 71 3 0 123 1 122 -87 0 -87
0 -112 223 c-61 122 -122 233 -136 247 l-24 25 -668 3 -668 3 -34 -23z m1298
-350 c34 -67 60 -123 59 -125 -2 -2 -304 -2 -670 -1 l-666 3 61 123 60 122
548 0 547 0 61 -122z m118 -410 c-3 -18 -14 -100 -26 -182 -11 -83 -23 -152
-26 -155 -3 -3 -309 -6 -680 -6 -667 0 -674 0 -675 20 0 11 -2 29 -4 40 -3 11
-7 39 -10 62 -6 54 -14 110 -20 148 -3 17 -7 47 -10 68 l-6 37 731 0 731 0 -5
-32z m-162 -1099 c3 -3 -1 -50 -9 -105 -8 -54 -17 -117 -20 -139 -4 -22 -8
-49 -10 -60 -2 -11 -4 -30 -4 -42 l-1 -23 -520 0 -520 0 -1 23 c-2 31 -3 40
-24 177 -2 14 -6 43 -10 65 -3 22 -8 53 -11 68 -2 15 -3 31 0 35 5 8 1122 9
1130 1z"/>
</g>
</svg>
